<svg xmlns="http://www.w3.org/2000/svg" xmlns:xlink="http://www.w3.org/1999/xlink" width="102.715" height="34.84" viewBox="0 0 102.715 34.84"><defs><clipPath id="a"><path d="M376.9,77.958V89.2a4.709,4.709,0,0,1-4.7,4.7h-.065a4.709,4.709,0,0,1-4.7-4.7V80.341c-.065-4.82-2.22-7.834-6.507-9.02-3.743-.914-6.735.783-9.249,4.091a15.688,15.688,0,0,0-4.559-8.52l-.022-.054c3.362-4.994,13.253-7.7,20.956-3.014,5.136,3.145,8.541,7.53,8.846,14.134Z" transform="translate(-347.1 -61.397)"/></clipPath><clipPath id="b"><path d="M187.334,77.208v11.24a4.709,4.709,0,0,1-4.7,4.7h-.065a4.709,4.709,0,0,1-4.7-4.7V79.591c-.065-4.82-2.209-7.834-6.507-9.02-4.254-1.034-7.54,1.295-10.261,5.549V63.031a16.339,16.339,0,0,1,17.377.054c5.147,3.134,8.552,7.519,8.857,14.123Zm-4.7,9.26a2.263,2.263,0,1,1-2.263,2.263,2.261,2.261,0,0,1,2.263-2.263Z" transform="translate(-161.1 -60.556)"/></clipPath></defs><g transform="translate(-78 -39.9)"><g transform="translate(78 39.9)"><path d="M376.9,77.958V89.2a4.709,4.709,0,0,1-4.7,4.7h-.065a4.709,4.709,0,0,1-4.7-4.7V80.341c-.065-4.82-2.22-7.834-6.507-9.02-3.743-.914-6.735.783-9.249,4.091a15.688,15.688,0,0,0-4.559-8.52l-.022-.054c3.362-4.994,13.253-7.7,20.956-3.014,5.136,3.145,8.541,7.53,8.846,14.134Z" transform="translate(-317.82 -59.058)" fill="#8d18b7"/><g transform="translate(29.28 2.339)"><g clip-path="url(#a)"><path d="M324.9,90.832l3.232-3.232c1.959,1.491,4.156,3.982,7.029,9.412l-3.406,4.309L324.9,90.832Z" transform="translate(-327.316 -84.749)" fill="#6d198b"/></g></g><path d="M187.334,77.208v11.24a4.709,4.709,0,0,1-4.7,4.7h-.065a4.709,4.709,0,0,1-4.7-4.7V79.591c-.065-4.82-2.209-7.834-6.507-9.02-4.254-1.034-7.54,1.295-10.261,5.549V63.031a16.339,16.339,0,0,1,17.377.054c5.147,3.134,8.552,7.519,8.857,14.123Zm-4.7,9.26a2.263,2.263,0,1,1-2.263,2.263,2.261,2.261,0,0,1,2.263-2.263Z" transform="translate(-152.058 -58.308)" fill="#da0166"/><g transform="translate(9.042 2.248)"><g clip-path="url(#b)"><path d="M140.2,62.1h5.789V78.247H140.2Z" transform="translate(-142.474 -61.932)" fill="#b9125b"/></g></g><path d="M82.7,39.9h.065a4.709,4.709,0,0,1,4.7,4.7V70.04a4.709,4.709,0,0,1-4.7,4.7H82.7a4.709,4.709,0,0,1-4.7-4.7V44.6a4.709,4.709,0,0,1,4.7-4.7Zm.033,28.159a2.263,2.263,0,1,1-2.263,2.263,2.261,2.261,0,0,1,2.263-2.263Z" transform="translate(-78 -39.9)" fill="#e8a126"/><circle cx="3.297" cy="3.297" r="3.297" transform="translate(1.436 26.832)" fill="#e8a126"/><circle cx="3.297" cy="3.297" r="3.297" transform="translate(27.3 26.832)" fill="#da0166"/></g><g transform="translate(142.98 42.152)"><g transform="translate(0 0)"><path d="M675.2,62.5a1.774,1.774,0,0,1,.522-1.284,1.73,1.73,0,0,1,1.284-.511,1.835,1.835,0,0,1,1.295.511,1.742,1.742,0,0,1,.533,1.284V91.46a1.725,1.725,0,0,1-.533,1.284,1.8,1.8,0,0,1-1.295.522,1.757,1.757,0,0,1-1.284-.522,1.739,1.739,0,0,1-.522-1.284V62.5Z" transform="translate(-675.2 -60.689)" fill="#fff"/><path d="M778.512,76.856,767.435,63.592a1.809,1.809,0,0,1,.109-2.47,1.852,1.852,0,0,1,2.611.033l10.729,12.861,10.761-12.861a1.826,1.826,0,0,1,2.59-.033,1.73,1.73,0,0,1,.511,1.284,1.781,1.781,0,0,1-.4,1.186L783.234,76.856l11.2,13.416a1.937,1.937,0,0,1,.315,1.1,1.747,1.747,0,0,1-.511,1.284,1.774,1.774,0,0,1-1.284.522,1.494,1.494,0,0,1-1.219-.555L780.884,79.685,770.057,92.622a1.509,1.509,0,0,1-1.219.555,1.782,1.782,0,0,1-1.295-.522A1.679,1.679,0,0,1,767,91.371a1.884,1.884,0,0,1,.348-1.1l11.164-13.416Z" transform="translate(-757.011 -60.6)" fill="#fff"/></g></g></g></svg>