<svg xmlns="http://www.w3.org/2000/svg" xmlns:xlink="http://www.w3.org/1999/xlink" width="63.382" height="21.499" viewBox="0 0 63.382 21.499"><defs><clipPath id="a"><path d="M365.49,71.616v6.936a2.906,2.906,0,0,1-2.9,2.9h-.04a2.906,2.906,0,0,1-2.9-2.9V73.086c-.04-2.974-1.37-4.834-4.015-5.566-2.31-.564-4.156.483-5.707,2.525a9.681,9.681,0,0,0-2.813-5.257l-.013-.034c2.075-3.082,8.178-4.754,12.932-1.86,3.169,1.94,5.271,4.646,5.459,8.722Z" transform="translate(-347.1 -61.397)"/></clipPath><clipPath id="b"><path d="M177.288,70.831v6.936a2.906,2.906,0,0,1-2.9,2.9h-.04a2.906,2.906,0,0,1-2.9-2.9V72.3c-.04-2.974-1.363-4.834-4.015-5.566-2.625-.638-4.653.8-6.332,3.424V62.083a10.082,10.082,0,0,1,10.723.034c3.176,1.934,5.277,4.64,5.465,8.715Zm-2.9,5.714a1.4,1.4,0,1,1-1.4,1.4,1.4,1.4,0,0,1,1.4-1.4Z" transform="translate(-161.1 -60.556)"/></clipPath></defs><g transform="translate(-78 -39.9)"><g transform="translate(78 39.9)"><path d="M365.49,71.616v6.936a2.906,2.906,0,0,1-2.9,2.9h-.04a2.906,2.906,0,0,1-2.9-2.9V73.086c-.04-2.974-1.37-4.834-4.015-5.566-2.31-.564-4.156.483-5.707,2.525a9.681,9.681,0,0,0-2.813-5.257l-.013-.034c2.075-3.082,8.178-4.754,12.932-1.86,3.169,1.94,5.271,4.646,5.459,8.722Z" transform="translate(-329.032 -59.953)" fill="#8d18b7"/><g transform="translate(18.068 1.443)"><g clip-path="url(#a)"><path d="M324.9,89.594l1.994-1.994c1.209.92,2.565,2.457,4.337,5.808l-2.1,2.659-4.23-6.473Z" transform="translate(-326.391 -85.841)" fill="#6d198b"/></g></g><path d="M177.288,70.831v6.936a2.906,2.906,0,0,1-2.9,2.9h-.04a2.906,2.906,0,0,1-2.9-2.9V72.3c-.04-2.974-1.363-4.834-4.015-5.566-2.625-.638-4.653.8-6.332,3.424V62.083a10.082,10.082,0,0,1,10.723.034c3.176,1.934,5.277,4.64,5.465,8.715Zm-2.9,5.714a1.4,1.4,0,1,1-1.4,1.4,1.4,1.4,0,0,1,1.4-1.4Z" transform="translate(-155.52 -59.169)" fill="#da0166"/><g transform="translate(5.58 1.387)"><g clip-path="url(#b)"><path d="M140.2,62.1h3.572v9.964H140.2Z" transform="translate(-141.603 -61.996)" fill="#b9125b"/></g></g><path d="M80.9,39.9h.04a2.906,2.906,0,0,1,2.9,2.9V58.5a2.906,2.906,0,0,1-2.9,2.9H80.9A2.906,2.906,0,0,1,78,58.5V42.8a2.906,2.906,0,0,1,2.9-2.9Zm.02,17.376a1.4,1.4,0,1,1-1.4,1.4,1.4,1.4,0,0,1,1.4-1.4Z" transform="translate(-78 -39.9)" fill="#e8a126"/><circle cx="2.034" cy="2.034" r="2.034" transform="translate(0.886 16.557)" fill="#e8a126"/><circle cx="2.034" cy="2.034" r="2.034" transform="translate(16.846 16.557)" fill="#da0166"/></g><g transform="translate(118.097 41.29)"><g transform="translate(0 0)"><path d="M675.2,61.808a1.1,1.1,0,0,1,.322-.792,1.068,1.068,0,0,1,.792-.316,1.132,1.132,0,0,1,.8.316,1.075,1.075,0,0,1,.329.792V79.681a1.064,1.064,0,0,1-.329.792,1.11,1.11,0,0,1-.8.322,1.084,1.084,0,0,1-.792-.322,1.073,1.073,0,0,1-.322-.792V61.808Z" transform="translate(-675.2 -60.693)" fill="#515151"/><path d="M774.1,70.631l-6.835-8.185a1.116,1.116,0,0,1,.067-1.524,1.143,1.143,0,0,1,1.611.02l6.62,7.936,6.64-7.936a1.127,1.127,0,0,1,1.6-.02,1.067,1.067,0,0,1,.316.792,1.1,1.1,0,0,1-.248.732l-6.855,8.185,6.909,8.279a1.2,1.2,0,0,1,.195.678,1.078,1.078,0,0,1-.316.792,1.1,1.1,0,0,1-.792.322.922.922,0,0,1-.752-.342l-6.694-7.983-6.681,7.983a.931.931,0,0,1-.752.342,1.1,1.1,0,0,1-.8-.322,1.036,1.036,0,0,1-.336-.792,1.163,1.163,0,0,1,.215-.678l6.889-8.279Z" transform="translate(-760.836 -60.6)" fill="#515151"/></g></g></g></svg>